<?xml version="1.0" standalone="no"?>
<!DOCTYPE svg PUBLIC "-//W3C//DTD SVG 20010904//EN"
 "http://www.w3.org/TR/2001/REC-SVG-20010904/DTD/svg10.dtd">
<svg version="1.0" xmlns="http://www.w3.org/2000/svg"
 width="235.000000pt" height="266.000000pt" viewBox="0 0 235.000000 266.000000"
 preserveAspectRatio="xMidYMid meet">

<g transform="translate(0.000000,266.000000) scale(0.100000,-0.100000)"
fill="#000000" stroke="none">
<path d="M0 1330 l0 -1330 1175 0 1175 0 0 1330 0 1330 -1175 0 -1175 0 0
-1330z m1246 1015 c4 -10 20 -15 50 -15 24 0 44 -4 44 -10 0 -5 11 -10 25 -10
16 0 25 -6 25 -15 0 -9 9 -15 25 -15 14 0 25 -4 25 -10 0 -5 7 -10 15 -10 21
0 55 -31 55 -50 0 -9 9 -22 20 -30 11 -8 20 -25 20 -37 0 -15 6 -23 16 -23 14
0 16 -8 11 -46 -3 -33 -1 -47 9 -51 8 -3 14 -14 14 -24 0 -18 -15 -19 -425
-19 l-425 0 0 35 c0 19 5 35 10 35 6 0 10 20 10 45 0 33 4 45 15 45 9 0 15 9
15 23 0 12 9 29 20 37 11 8 20 25 20 37 0 18 6 23 25 23 14 0 25 5 25 10 0 6
11 10 25 10 16 0 25 6 25 15 0 9 9 15 25 15 14 0 25 5 25 10 0 6 20 10 45 10
33 0 45 4 45 15 0 12 16 15 80 15 62 0 82 -3 86 -15z m374 -400 c0 -9 9 -15
21 -15 22 0 49 -22 49 -39 0 -8 -155 -11 -515 -11 -360 0 -515 3 -515 11 0 17
27 39 49 39 12 0 21 6 21 15 0 13 56 15 445 15 389 0 445 -2 445 -15z m-770
-145 c0 -5 -7 -10 -15 -10 -8 0 -15 5 -15 10 0 6 7 10 15 10 8 0 15 -4 15 -10z
m281 -10 c10 0 19 5 19 10 0 6 22 10 48 10 36 0 51 -5 62 -20 8 -11 26 -21 40
-21 17 -1 19 -3 8 -6 -15 -4 -18 -16 -18 -79 0 -81 -11 -104 -49 -104 -12 0
-21 -5 -21 -11 0 -6 -7 -17 -15 -25 -12 -12 -18 -12 -35 -2 -11 7 -20 17 -20
21 0 12 -26 37 -38 37 -6 0 -12 7 -16 15 -7 20 -36 8 -36 -16 0 -10 5 -19 10
-19 6 0 10 -10 10 -21 0 -12 12 -32 28 -45 23 -21 37 -24 104 -24 42 0 80 5
83 10 3 6 15 10 26 10 14 0 19 7 19 30 0 20 -5 30 -15 30 -12 0 -15 12 -13 53
l2 52 3 -47 c6 -78 23 -54 23 32 l0 80 35 0 c24 0 35 5 35 15 0 10 10 14 35
13 22 -1 35 -6 35 -15 0 -7 5 -13 10 -13 6 0 10 -16 10 -35 0 -19 -4 -35 -10
-35 -5 0 -10 -9 -10 -20 0 -11 5 -20 10 -20 6 0 10 5 10 10 0 6 5 10 11 10 14
0 39 25 39 39 0 18 90 14 96 -4 4 -9 19 -15 40 -15 19 0 34 -4 34 -10 0 -5 9
-10 20 -10 11 0 20 -7 20 -15 0 -12 -13 -15 -55 -15 -30 0 -55 -4 -55 -10 0
-5 -9 -10 -20 -10 -31 0 -80 -55 -80 -90 0 -17 -4 -30 -10 -30 -5 0 -10 -20
-10 -45 0 -25 5 -45 10 -45 6 0 10 -22 10 -50 0 -27 5 -50 10 -50 6 0 10 -25
10 -55 0 -42 3 -55 15 -55 10 0 15 -11 15 -35 0 -31 -3 -35 -25 -35 -16 0 -25
-6 -25 -15 0 -9 -9 -15 -25 -15 -14 0 -25 -4 -25 -10 0 -5 -16 -10 -35 -10
-19 0 -35 -4 -35 -10 0 -6 -30 -10 -70 -10 -56 0 -70 -3 -70 -15 0 -10 -11
-15 -35 -15 -35 0 -35 0 -35 45 0 31 5 47 15 51 12 5 15 24 15 85 l0 79 35 0
c56 0 40 20 -17 22 l-53 1 45 4 c24 3 48 10 52 16 5 8 8 6 8 -5 0 -11 8 -18
20 -18 15 0 20 7 20 25 0 16 6 25 16 25 13 0 15 8 12 43 -3 23 -3 34 -1 25 6
-25 23 -23 23 2 0 11 5 20 10 20 6 0 10 11 10 25 0 16 -6 25 -16 25 -19 0 -54
-37 -54 -57 0 -7 -4 -13 -10 -13 -5 0 -10 -7 -10 -16 0 -8 -13 -29 -29 -45
-27 -27 -35 -29 -105 -29 -44 0 -76 4 -76 10 0 6 -13 10 -30 10 -32 0 -90 48
-90 75 0 17 -28 51 -35 43 -2 -2 -5 -24 -7 -48 -3 -43 -2 -45 22 -42 18 1 21
0 11 -7 -12 -8 -11 -12 3 -27 15 -14 19 -15 27 -3 7 10 8 7 7 -11 -3 -24 -1
-25 52 -24 30 1 40 -1 23 -3 -39 -5 -45 -23 -8 -23 25 0 25 -1 25 -80 0 -47 4
-80 10 -80 6 0 10 30 10 70 l0 70 35 0 35 0 0 -70 c0 -40 -4 -70 -10 -70 -6 0
-10 -32 -10 -76 0 -56 -3 -75 -12 -72 -8 3 -14 29 -16 71 -3 65 -22 97 -22 37
0 -28 -3 -30 -35 -30 -19 0 -35 5 -35 10 0 6 -30 10 -70 10 -40 0 -70 4 -70
10 0 6 -18 10 -40 10 -31 0 -47 6 -64 25 -13 14 -31 25 -40 25 -12 0 -16 9
-16 35 0 19 5 35 10 35 6 0 10 16 10 35 0 19 5 35 10 35 6 0 10 11 10 25 0 16
6 25 16 25 15 0 16 11 12 92 -4 54 -10 94 -17 96 -6 2 -11 17 -11 34 0 34 -20
58 -49 58 -12 0 -21 5 -21 10 0 6 -16 10 -35 10 -31 0 -35 3 -35 25 0 20 5 25
25 25 16 0 25 6 25 15 0 11 12 15 45 15 33 0 45 -4 45 -15 0 -9 9 -15 25 -15
22 0 25 -4 25 -35 0 -19 5 -35 10 -35 6 0 10 -16 10 -35 0 -24 5 -35 15 -35
10 0 15 -11 15 -35 0 -19 5 -35 10 -35 6 0 10 -11 10 -25 0 -14 5 -25 10 -25
6 0 10 16 10 35 0 19 -4 35 -10 35 -5 0 -10 16 -10 35 0 19 -4 35 -10 35 -5 0
-10 11 -10 25 0 16 -6 25 -15 25 -10 0 -15 11 -15 35 0 19 -4 35 -10 35 -5 0
-10 16 -10 35 0 31 3 35 25 35 16 0 25 6 25 15 0 10 10 15 30 15 18 0 33 -6
36 -15 4 -9 19 -15 40 -15 19 0 34 -4 34 -10 0 -5 -7 -10 -15 -10 -8 0 -15 -4
-15 -10 0 -5 11 -10 25 -10 18 0 25 5 25 20 0 11 5 20 10 20 6 0 10 17 11 38
0 20 3 31 6 25 2 -7 13 -13 24 -13z m-236 -19 c-3 -6 -11 -11 -16 -11 -5 0 -4
6 3 14 14 16 24 13 13 -3z m619 3 c3 -8 2 -12 -4 -9 -6 3 -10 10 -10 16 0 14
7 11 14 -7z m-389 -223 c-6 -5 -25 10 -25 20 0 5 6 4 14 -3 8 -7 12 -15 11
-17z m148 2 c-13 -3 -23 -13 -25 -26 -3 -20 -9 -22 -61 -23 l-57 -1 55 4 c45
3 55 7 55 22 0 23 9 31 34 30 20 -2 20 -2 -1 -6z m-193 -533 c0 -5 16 -10 35
-10 31 0 35 -3 35 -25 0 -22 -4 -25 -35 -25 -24 0 -35 5 -35 15 0 12 -13 15
-60 15 -53 0 -60 2 -60 20 0 18 7 20 60 20 33 0 60 -4 60 -10z m330 -20 c0 -5
-20 -10 -44 -10 -30 0 -46 -5 -50 -15 -4 -10 -20 -15 -51 -15 -33 0 -45 4 -45
15 0 10 11 15 35 15 19 0 35 5 35 10 0 6 27 10 60 10 33 0 60 -4 60 -10z
m-450 -20 c0 -5 11 -10 25 -10 16 0 25 -6 25 -15 0 -8 -4 -15 -10 -15 -5 0
-10 -9 -10 -20 0 -11 5 -20 10 -20 6 0 10 -5 10 -11 0 -14 25 -39 39 -39 6 0
11 -7 11 -15 0 -8 -6 -15 -14 -15 -8 0 -16 -5 -18 -12 -3 -7 -24 8 -52 36 -26
27 -50 45 -54 41 -4 -4 -1 -10 6 -12 20 -8 15 -53 -7 -53 -20 0 -31 -18 -31
-51 0 -10 -4 -19 -10 -19 -5 0 -10 7 -10 15 0 9 -9 15 -25 15 -23 0 -25 4 -25
45 0 33 4 45 15 45 18 0 20 16 3 24 -7 3 -3 3 10 0 12 -3 22 -1 22 5 0 12 70
89 83 90 4 1 7 -3 7 -9z m499 -12 c0 -13 -3 -18 -5 -11 -3 7 -17 11 -32 9 -15
-2 -19 -1 -9 1 9 2 17 9 17 14 0 5 7 9 15 9 9 0 15 -9 14 -22z m-91 -45 c12
-12 13 -18 4 -21 -6 -2 -12 -10 -12 -18 0 -8 -9 -14 -20 -14 -11 0 -20 5 -20
10 0 6 -20 10 -45 10 -31 0 -47 5 -51 15 -4 10 -20 15 -49 15 -29 0 -45 -5
-49 -15 -3 -8 -15 -15 -26 -15 -11 0 -20 -4 -20 -10 0 -17 -29 -11 -50 10 -11
11 -20 27 -20 35 0 24 334 22 358 -2z m72 -23 c23 -23 25 -30 9 -30 -14 0 -39
-25 -39 -39 0 -6 -4 -11 -10 -11 -5 0 -10 -9 -10 -20 0 -20 -1 -20 -25 4 -14
14 -25 28 -25 31 0 4 71 82 78 84 1 1 11 -8 22 -19z m-1060 -40 c0 -5 7 -10
15 -10 9 0 37 -22 64 -50 27 -27 54 -50 60 -50 15 0 71 -54 71 -69 0 -7 9 -21
20 -33 11 -12 20 -30 20 -40 0 -10 7 -18 15 -18 9 0 15 -9 15 -25 0 -14 5 -25
10 -25 6 0 10 -11 10 -25 0 -14 5 -25 10 -25 19 0 11 -65 -10 -80 -11 -8 -20
-21 -20 -29 0 -19 -63 -78 -68 -63 -2 7 -8 12 -14 12 -19 0 -38 29 -38 59 0
17 -4 31 -10 31 -5 0 -10 7 -10 15 0 8 -7 15 -15 15 -8 0 -15 5 -15 10 0 6 -7
10 -15 10 -22 0 -165 147 -165 170 0 11 -5 20 -11 20 -11 0 -39 25 -39 35 0
10 -28 35 -39 35 -6 0 -11 11 -11 25 0 16 6 25 15 25 8 0 15 9 15 20 0 11 5
20 10 20 6 0 10 7 10 15 0 9 9 15 25 15 14 0 25 5 25 10 0 6 16 10 35 10 19 0
35 -4 35 -10z m286 -4 c28 -28 15 -36 -56 -36 -68 0 -70 1 -70 25 0 24 3 25
56 25 35 0 61 -5 70 -14z m1164 -11 c0 -18 -5 -25 -20 -25 -11 0 -20 -4 -20
-10 0 -6 -27 -10 -60 -10 -33 0 -60 2 -60 5 0 3 8 14 17 25 12 14 30 20 60 20
24 0 43 5 43 10 0 6 9 10 20 10 15 0 20 -7 20 -25z m-350 -6 c0 -6 7 -17 15
-26 17 -17 15 -39 -3 -37 -7 1 -23 2 -37 3 -22 1 -25 6 -25 36 0 31 3 35 25
35 14 0 25 -5 25 -11z m660 -29 c44 -44 50 -68 20 -90 -11 -8 -20 -20 -20 -27
0 -7 -5 -13 -10 -13 -14 0 -60 -46 -60 -60 0 -5 -5 -10 -10 -10 -14 0 -60 -46
-60 -60 0 -5 -5 -10 -10 -10 -14 0 -60 -46 -60 -60 0 -5 -7 -10 -15 -10 -8 0
-15 -4 -15 -10 0 -5 -7 -10 -15 -10 -14 0 -55 -34 -55 -45 0 -3 7 -5 15 -5 8
0 15 -4 15 -10 0 -5 -7 -10 -15 -10 -8 0 -15 -5 -15 -10 0 -11 -45 -60 -55
-60 -15 0 -55 51 -55 70 0 11 -5 20 -11 20 -14 0 -39 25 -39 39 0 6 5 11 10
11 6 0 10 9 10 19 0 10 7 21 15 25 8 3 15 15 15 26 0 11 5 20 10 20 6 0 10 11
10 25 0 14 5 25 10 25 6 0 10 9 10 19 0 10 7 21 15 25 8 3 15 15 15 26 0 11 5
20 10 20 6 0 10 5 10 11 0 16 26 39 45 39 9 0 35 20 59 45 25 25 53 45 65 45
12 0 21 6 21 15 0 11 12 15 50 15 44 0 53 -4 90 -40z m-1345 12 c-3 -3 -11 0
-18 7 -9 10 -8 11 6 5 10 -3 15 -9 12 -12z m782 -29 c-3 -10 -5 -2 -5 17 0 19
2 27 5 18 2 -10 2 -26 0 -35z m-377 17 c0 -5 11 -10 25 -10 20 0 24 -5 22 -22
-1 -17 4 -24 21 -26 14 -2 22 -10 22 -22 0 -10 5 -22 10 -25 6 -3 10 -19 10
-36 0 -16 -4 -29 -10 -29 -14 0 -12 -27 3 -34 10 -5 10 -7 0 -12 -7 -3 -13
-12 -13 -19 0 -7 6 -16 13 -18 9 -4 8 -8 -3 -17 -11 -9 -12 -13 -2 -17 36 -15
-1 -23 -103 -23 l-115 0 0 111 c0 110 8 139 39 139 6 0 11 9 11 20 0 12 6 27
13 35 14 16 57 20 57 5z m-236 -45 c-4 -8 -10 -15 -15 -15 -5 0 -9 7 -9 15 0
8 7 15 15 15 9 0 12 -6 9 -15z m496 -5 c0 -5 -12 -10 -27 -9 l-28 1 25 8 c14
4 26 8 28 9 1 1 2 -3 2 -9z m-80 -20 c0 -5 -4 -10 -10 -10 -5 0 -10 5 -10 10
0 6 5 10 10 10 6 0 10 -4 10 -10z m120 -20 c0 -5 -9 -10 -20 -10 -11 0 -20 5
-20 10 0 6 9 10 20 10 11 0 20 -4 20 -10z m-490 -25 c0 -10 -11 -15 -35 -15
-24 0 -35 5 -35 15 0 10 11 15 35 15 24 0 35 -5 35 -15z m146 -312 c12 -17 13
-17 19 0 8 19 41 23 47 5 3 -7 21 -12 41 -11 40 1 58 -13 36 -29 -11 -7 -11
-11 -1 -15 14 -6 17 -73 2 -73 -14 0 -12 -28 2 -32 9 -3 7 -10 -6 -24 -14 -13
-21 -15 -24 -6 -4 14 -32 16 -32 2 0 -5 -13 -10 -30 -10 -16 0 -30 5 -30 10 0
14 -27 12 -34 -2 -5 -10 -7 -10 -12 0 -7 14 -34 16 -34 2 0 -5 -4 -10 -10 -10
-6 0 -10 39 -10 96 0 92 1 96 21 91 12 -3 22 0 26 9 7 18 13 18 29 -3z m184
-183 c0 -5 -4 -10 -10 -10 -5 0 -10 5 -10 10 0 6 5 10 10 10 6 0 10 -4 10 -10z
m-120 -120 c0 -39 -1 -40 -35 -40 -34 0 -35 1 -35 40 0 39 1 40 35 40 34 0 35
-1 35 -40z"/>
<path d="M1040 2295 c0 -8 9 -15 20 -15 11 0 20 7 20 15 0 8 -9 15 -20 15 -11
0 -20 -7 -20 -15z"/>
<path d="M981 2264 c-7 -8 -10 -18 -6 -22 4 -4 10 -1 12 6 3 6 13 12 24 12 10
0 19 5 19 10 0 15 -33 11 -49 -6z"/>
<path d="M1180 2220 c0 -47 -3 -60 -15 -60 -12 0 -15 -13 -15 -55 0 -42 3 -55
15 -55 11 0 15 13 15 54 0 30 5 58 10 61 6 3 10 31 10 61 0 30 -4 54 -10 54
-6 0 -10 -27 -10 -60z"/>
<path d="M1320 2274 c0 -3 6 -12 14 -20 17 -16 46 -19 46 -4 0 6 -9 10 -20 10
-11 0 -20 5 -20 10 0 6 -4 10 -10 10 -5 0 -10 -3 -10 -6z"/>
<path d="M930 2210 c-8 -11 -20 -20 -27 -20 -7 0 -13 -11 -13 -25 0 -14 -4
-25 -10 -25 -5 0 -10 -11 -10 -25 0 -14 -4 -25 -10 -25 -5 0 -10 -9 -10 -20 0
-11 5 -20 10 -20 6 0 10 9 10 20 0 11 5 20 10 20 6 0 10 11 10 25 0 16 6 25
15 25 9 0 15 9 15 23 0 12 9 29 20 37 20 15 27 30 12 30 -4 0 -14 -9 -22 -20z"/>
<path d="M1390 2220 c0 -5 5 -10 10 -10 6 0 10 -16 10 -35 0 -19 5 -35 10 -35
6 0 10 -16 10 -35 0 -24 5 -35 14 -35 8 0 16 -6 19 -12 2 -8 8 -9 13 -4 5 5 4
11 -3 13 -7 3 -13 20 -13 39 0 24 -5 34 -15 34 -10 0 -15 10 -15 31 0 17 -6
37 -14 45 -17 16 -26 18 -26 4z"/>
<path d="M1030 1660 c0 -25 4 -30 25 -30 21 0 25 5 25 30 0 25 -4 30 -25 30
-21 0 -25 -5 -25 -30z"/>
<path d="M1460 1600 c0 -11 5 -20 10 -20 6 0 10 9 10 20 0 11 -4 20 -10 20 -5
0 -10 -9 -10 -20z"/>
<path d="M1437 1574 c-4 -4 -7 -20 -7 -35 0 -15 -6 -30 -12 -32 -10 -4 -9 -8
2 -16 24 -17 35 -7 38 34 3 37 -8 62 -21 49z"/>
<path d="M1010 1460 c0 -11 5 -20 10 -20 6 0 10 5 10 10 0 6 58 10 155 10 97
0 155 -4 155 -10 0 -5 5 -10 10 -10 6 0 10 9 10 20 0 19 -7 20 -175 20 -168 0
-175 -1 -175 -20z"/>
<path d="M850 839 c0 -16 30 -43 38 -34 4 4 1 10 -5 12 -7 3 -13 11 -13 19 0
8 -4 14 -10 14 -5 0 -10 -5 -10 -11z"/>
<path d="M1480 790 c0 -5 5 -10 10 -10 6 0 10 5 10 10 0 6 -4 10 -10 10 -5 0
-10 -4 -10 -10z"/>
<path d="M1150 765 c0 -8 7 -15 15 -15 8 0 15 7 15 15 0 8 -7 15 -15 15 -8 0
-15 -7 -15 -15z"/>
<path d="M1102 719 c2 -6 8 -10 13 -10 5 0 11 4 13 10 2 6 -4 11 -13 11 -9 0
-15 -5 -13 -11z"/>
<path d="M1200 715 c0 -8 5 -15 10 -15 6 0 10 7 10 15 0 8 -4 15 -10 15 -5 0
-10 -7 -10 -15z"/>
<path d="M1150 670 c0 -5 7 -10 15 -10 8 0 15 5 15 10 0 6 -7 10 -15 10 -8 0
-15 -4 -15 -10z"/>
<path d="M1200 670 c0 -5 5 -10 10 -10 6 0 10 5 10 10 0 6 -4 10 -10 10 -5 0
-10 -4 -10 -10z"/>
<path d="M1240 670 c0 -5 7 -10 15 -10 8 0 15 5 15 10 0 6 -7 10 -15 10 -8 0
-15 -4 -15 -10z"/>
<path d="M1107 633 c-12 -11 -8 -23 8 -23 8 0 15 7 15 15 0 16 -12 20 -23 8z"/>
<path d="M1200 625 c0 -8 5 -15 10 -15 6 0 10 7 10 15 0 8 -4 15 -10 15 -5 0
-10 -7 -10 -15z"/>
<path d="M1102 578 c6 -18 28 -21 28 -4 0 9 -7 16 -16 16 -9 0 -14 -5 -12 -12z"/>
<path d="M1150 574 c0 -17 22 -14 28 4 2 7 -3 12 -12 12 -9 0 -16 -7 -16 -16z"/>
<path d="M1242 578 c6 -18 28 -21 28 -4 0 9 -7 16 -16 16 -9 0 -14 -5 -12 -12z"/>
<path d="M1100 530 c0 -5 7 -10 15 -10 8 0 15 5 15 10 0 6 -7 10 -15 10 -8 0
-15 -4 -15 -10z"/>
<path d="M1200 530 c0 -5 5 -10 10 -10 6 0 10 5 10 10 0 6 -4 10 -10 10 -5 0
-10 -4 -10 -10z"/>
<path d="M1100 340 c0 -5 7 -10 15 -10 8 0 15 5 15 10 0 6 -7 10 -15 10 -8 0
-15 -4 -15 -10z"/>
<path d="M1200 340 c0 -5 5 -10 10 -10 6 0 10 5 10 10 0 6 -4 10 -10 10 -5 0
-10 -4 -10 -10z"/>
<path d="M1150 296 c0 -9 7 -16 16 -16 17 0 14 22 -4 28 -7 2 -12 -3 -12 -12z"/>
<path d="M1200 295 c0 -8 5 -15 10 -15 6 0 10 7 10 15 0 8 -4 15 -10 15 -5 0
-10 -7 -10 -15z"/>
<path d="M1247 303 c-12 -11 -8 -23 8 -23 8 0 15 7 15 15 0 16 -12 20 -23 8z"/>
<path d="M1102 248 c6 -18 28 -21 28 -4 0 9 -7 16 -16 16 -9 0 -14 -5 -12 -12z"/>
<path d="M1200 245 c0 -8 5 -15 10 -15 6 0 10 7 10 15 0 8 -4 15 -10 15 -5 0
-10 -7 -10 -15z"/>
</g>
</svg>
